<?xml version="1.0" encoding="UTF-8" standalone="no"?><svg xmlns="http://www.w3.org/2000/svg" xmlns:xlink="http://www.w3.org/1999/xlink" contentStyleType="text/css" height="849px" preserveAspectRatio="none" style="width:1152px;height:849px;background:#FFFFFF;" version="1.1" viewBox="0 0 1152 849" width="1152px" zoomAndPan="magnify"><defs/><g><rect fill="#76B82A" height="322.4609" style="stroke:#76B82A;stroke-width:1.0;" width="10" x="65" y="417.3828"/><rect fill="#76B82A" height="29.1328" style="stroke:#76B82A;stroke-width:1.0;" width="10" x="528" y="140.0547"/><rect fill="#76B82A" height="293.3281" style="stroke:#76B82A;stroke-width:1.0;" width="10" x="528" y="446.5156"/><rect fill="#76B82A" height="29.1328" style="stroke:#76B82A;stroke-width:1.0;" width="10" x="732" y="198.3203"/><rect fill="#76B82A" height="44.2656" style="stroke:#76B82A;stroke-width:1.0;" width="10" x="732" y="373.1172"/><rect fill="#76B82A" height="87.3984" style="stroke:#76B82A;stroke-width:1.0;" width="10" x="732" y="499.7813"/><rect fill="#76B82A" height="87.3984" style="stroke:#76B82A;stroke-width:1.0;" width="10" x="732" y="616.3125"/><rect fill="#76B82A" height="29.1328" style="stroke:#76B82A;stroke-width:1.0;" width="10" x="989" y="256.5859"/><rect fill="#76B82A" height="29.1328" style="stroke:#76B82A;stroke-width:1.0;" width="10" x="989" y="314.8516"/><rect fill="#76B82A" height="29.1328" style="stroke:#76B82A;stroke-width:1.0;" width="10" x="989" y="528.9141"/><rect fill="#76B82A" height="29.1328" style="stroke:#76B82A;stroke-width:1.0;" width="10" x="989" y="645.4453"/><rect fill="none" height="646.0547" style="stroke:#000000;stroke-width:1.5;" width="1136" x="10" y="101.7891"/><rect fill="none" height="250.1953" style="stroke:#000000;stroke-width:1.5;" width="677" x="459" y="461.5156"/><line style="stroke:#76B82A;stroke-width:0.5;stroke-dasharray:5.0,5.0;" x1="70" x2="70" y1="84.7891" y2="764.8438"/><line style="stroke:#76B82A;stroke-width:0.5;stroke-dasharray:5.0,5.0;" x1="533" x2="533" y1="84.7891" y2="764.8438"/><line style="stroke:#76B82A;stroke-width:0.5;stroke-dasharray:5.0,5.0;" x1="737" x2="737" y1="84.7891" y2="764.8438"/><line style="stroke:#76B82A;stroke-width:0.5;stroke-dasharray:5.0,5.0;" x1="994" x2="994" y1="84.7891" y2="764.8438"/><text fill="#000000" font-family="Arial" font-size="17" lengthAdjust="spacing" textLength="94" x="20" y="80.7798">netID User</text><ellipse cx="70" cy="13.5" fill="#FFFFFF" rx="8" ry="8" style="stroke:#76B82A;stroke-width:0.5;"/><path d="M70,21.5 L70,48.5 M57,29.5 L83,29.5 M70,48.5 L57,63.5 M70,48.5 L83,63.5 " fill="none" style="stroke:#76B82A;stroke-width:0.5;"/><text fill="#000000" font-family="Arial" font-size="17" lengthAdjust="spacing" textLength="94" x="20" y="779.6235">netID User</text><ellipse cx="70" cy="792.1328" fill="#FFFFFF" rx="8" ry="8" style="stroke:#76B82A;stroke-width:0.5;"/><path d="M70,800.1328 L70,827.1328 M57,808.1328 L83,808.1328 M70,827.1328 L57,842.1328 M70,827.1328 L83,842.1328 " fill="none" style="stroke:#76B82A;stroke-width:0.5;"/><rect fill="#76B82A" height="33.7891" rx="2.5" ry="2.5" style="stroke:#76B82A;stroke-width:0.5;" width="128" x="469" y="50"/><text fill="#FFFFFF" font-family="Arial" font-size="17" lengthAdjust="spacing" textLength="114" x="476" y="72.7798">Website (RP)</text><rect fill="#76B82A" height="33.7891" rx="2.5" ry="2.5" style="stroke:#76B82A;stroke-width:0.5;" width="128" x="469" y="763.8438"/><text fill="#FFFFFF" font-family="Arial" font-size="17" lengthAdjust="spacing" textLength="114" x="476" y="786.6235">Website (RP)</text><rect fill="#76B82A" height="33.7891" rx="2.5" ry="2.5" style="stroke:#76B82A;stroke-width:0.5;" width="230" x="622" y="50"/><text fill="#FFFFFF" font-family="Arial" font-size="17" lengthAdjust="spacing" textLength="216" x="629" y="72.7798">Identity Broker (IOP/IRP)</text><rect fill="#76B82A" height="33.7891" rx="2.5" ry="2.5" style="stroke:#76B82A;stroke-width:0.5;" width="230" x="622" y="763.8438"/><text fill="#FFFFFF" font-family="Arial" font-size="17" lengthAdjust="spacing" textLength="216" x="629" y="786.6235">Identity Broker (IOP/IRP)</text><rect fill="#76B82A" height="33.7891" rx="2.5" ry="2.5" style="stroke:#76B82A;stroke-width:0.5;" width="264" x="862" y="50"/><text fill="#FFFFFF" font-family="Arial" font-size="17" lengthAdjust="spacing" textLength="250" x="869" y="72.7798">netID Account Provider (OP)</text><rect fill="#76B82A" height="33.7891" rx="2.5" ry="2.5" style="stroke:#76B82A;stroke-width:0.5;" width="264" x="862" y="763.8438"/><text fill="#FFFFFF" font-family="Arial" font-size="17" lengthAdjust="spacing" textLength="250" x="869" y="786.6235">netID Account Provider (OP)</text><rect fill="#76B82A" height="322.4609" style="stroke:#76B82A;stroke-width:1.0;" width="10" x="65" y="417.3828"/><rect fill="#76B82A" height="29.1328" style="stroke:#76B82A;stroke-width:1.0;" width="10" x="528" y="140.0547"/><rect fill="#76B82A" height="293.3281" style="stroke:#76B82A;stroke-width:1.0;" width="10" x="528" y="446.5156"/><rect fill="#76B82A" height="29.1328" style="stroke:#76B82A;stroke-width:1.0;" width="10" x="732" y="198.3203"/><rect fill="#76B82A" height="44.2656" style="stroke:#76B82A;stroke-width:1.0;" width="10" x="732" y="373.1172"/><rect fill="#76B82A" height="87.3984" style="stroke:#76B82A;stroke-width:1.0;" width="10" x="732" y="499.7813"/><rect fill="#76B82A" height="87.3984" style="stroke:#76B82A;stroke-width:1.0;" width="10" x="732" y="616.3125"/><rect fill="#76B82A" height="29.1328" style="stroke:#76B82A;stroke-width:1.0;" width="10" x="989" y="256.5859"/><rect fill="#76B82A" height="29.1328" style="stroke:#76B82A;stroke-width:1.0;" width="10" x="989" y="314.8516"/><rect fill="#76B82A" height="29.1328" style="stroke:#76B82A;stroke-width:1.0;" width="10" x="989" y="528.9141"/><rect fill="#76B82A" height="29.1328" style="stroke:#76B82A;stroke-width:1.0;" width="10" x="989" y="645.4453"/><path d="M10,101.7891 L118,101.7891 L118,108.9219 L108,118.9219 L10,118.9219 L10,101.7891 " fill="#EEEEEE" style="stroke:#000000;stroke-width:1.5;"/><rect fill="none" height="646.0547" style="stroke:#000000;stroke-width:1.5;" width="1136" x="10" y="101.7891"/><text fill="#000000" font-family="sans-serif" font-size="13" font-weight="bold" lengthAdjust="spacing" textLength="63" x="25" y="114.856">Browser</text><polygon fill="#76B82A" points="516,136.0547,526,140.0547,516,144.0547,520,140.0547" style="stroke:#76B82A;stroke-width:1.0;"/><line style="stroke:#76B82A;stroke-width:1.0;" x1="70" x2="522" y1="140.0547" y2="140.0547"/><text fill="#000000" font-family="sans-serif" font-size="13" font-weight="bold" lengthAdjust="spacing" textLength="31" x="77" y="134.9888">[01]</text><text fill="#000000" font-family="sans-serif" font-size="13" lengthAdjust="spacing" textLength="258" x="112" y="134.9888">Start a use case that requires SSO Login</text><polygon fill="#76B82A" points="81,165.1875,71,169.1875,81,173.1875,77,169.1875" style="stroke:#76B82A;stroke-width:1.0;"/><line style="stroke:#76B82A;stroke-width:1.0;" x1="75" x2="532" y1="169.1875" y2="169.1875"/><text fill="#000000" font-family="sans-serif" font-size="13" font-weight="bold" lengthAdjust="spacing" textLength="31" x="87" y="164.1216">[02]</text><text fill="#000000" font-family="sans-serif" font-size="13" lengthAdjust="spacing" textLength="399" x="122" y="164.1216">Show "netID Login Button" to invoke AuthReq with parameters</text><polygon fill="#76B82A" points="720,194.3203,730,198.3203,720,202.3203,724,198.3203" style="stroke:#76B82A;stroke-width:1.0;"/><line style="stroke:#76B82A;stroke-width:1.0;" x1="70" x2="726" y1="198.3203" y2="198.3203"/><text fill="#000000" font-family="sans-serif" font-size="13" font-weight="bold" lengthAdjust="spacing" textLength="30" x="77" y="193.2544">[03]</text><text fill="#000000" font-family="sans-serif" font-size="13" lengthAdjust="spacing" textLength="104" x="111" y="193.2544">Trigger AuthReq</text><polygon fill="#76B82A" points="81,223.4531,71,227.4531,81,231.4531,77,227.4531" style="stroke:#76B82A;stroke-width:1.0;"/><line style="stroke:#76B82A;stroke-width:1.0;" x1="75" x2="736" y1="227.4531" y2="227.4531"/><text fill="#000000" font-family="sans-serif" font-size="13" font-weight="bold" lengthAdjust="spacing" textLength="31" x="87" y="222.3872">[04]</text><text fill="#000000" font-family="sans-serif" font-size="13" lengthAdjust="spacing" textLength="213" x="122" y="222.3872">Redirect to OP with new AuthReq</text><polygon fill="#76B82A" points="977,252.5859,987,256.5859,977,260.5859,981,256.5859" style="stroke:#76B82A;stroke-width:1.0;"/><line style="stroke:#76B82A;stroke-width:1.0;" x1="70" x2="983" y1="256.5859" y2="256.5859"/><text fill="#000000" font-family="sans-serif" font-size="13" font-weight="bold" lengthAdjust="spacing" textLength="31" x="77" y="251.52">[05]</text><text fill="#000000" font-family="sans-serif" font-size="13" lengthAdjust="spacing" textLength="141" x="112" y="251.52">Login with Credentials</text><polygon fill="#76B82A" points="81,281.7188,71,285.7188,81,289.7188,77,285.7188" style="stroke:#76B82A;stroke-width:1.0;"/><line style="stroke:#76B82A;stroke-width:1.0;" x1="75" x2="993" y1="285.7188" y2="285.7188"/><text fill="#000000" font-family="sans-serif" font-size="13" font-weight="bold" lengthAdjust="spacing" textLength="31" x="87" y="280.6528">[06]</text><text fill="#000000" font-family="sans-serif" font-size="13" lengthAdjust="spacing" textLength="280" x="122" y="280.6528">Show requested claims and ask for consent</text><polygon fill="#76B82A" points="977,310.8516,987,314.8516,977,318.8516,981,314.8516" style="stroke:#76B82A;stroke-width:1.0;"/><line style="stroke:#76B82A;stroke-width:1.0;" x1="70" x2="983" y1="314.8516" y2="314.8516"/><text fill="#000000" font-family="sans-serif" font-size="13" font-weight="bold" lengthAdjust="spacing" textLength="31" x="77" y="309.7856">[07]</text><text fill="#000000" font-family="sans-serif" font-size="13" lengthAdjust="spacing" textLength="158" x="112" y="309.7856">Consent to data transfer</text><polygon fill="#76B82A" points="81,339.9844,71,343.9844,81,347.9844,77,343.9844" style="stroke:#76B82A;stroke-width:1.0;"/><line style="stroke:#76B82A;stroke-width:1.0;" x1="75" x2="993" y1="343.9844" y2="343.9844"/><text fill="#000000" font-family="sans-serif" font-size="13" font-weight="bold" lengthAdjust="spacing" textLength="31" x="87" y="338.9185">[08]</text><text fill="#000000" font-family="sans-serif" font-size="13" lengthAdjust="spacing" textLength="265" x="122" y="338.9185">Issue AuthN Response and redirect to IRP</text><polygon fill="#76B82A" points="720,369.1172,730,373.1172,720,377.1172,724,373.1172" style="stroke:#76B82A;stroke-width:1.0;"/><line style="stroke:#76B82A;stroke-width:1.0;" x1="70" x2="726" y1="373.1172" y2="373.1172"/><text fill="#000000" font-family="sans-serif" font-size="13" font-weight="bold" lengthAdjust="spacing" textLength="31" x="77" y="368.0513">[09]</text><text fill="#000000" font-family="sans-serif" font-size="13" lengthAdjust="spacing" textLength="269" x="112" y="368.0513">Transfer AuthN Response via redirect URL</text><polygon fill="#76B82A" points="86,413.3828,76,417.3828,86,421.3828,82,417.3828" style="stroke:#76B82A;stroke-width:1.0;"/><line style="stroke:#76B82A;stroke-width:1.0;" x1="80" x2="736" y1="417.3828" y2="417.3828"/><text fill="#000000" font-family="sans-serif" font-size="13" font-weight="bold" lengthAdjust="spacing" textLength="31" x="92" y="404.7505">[10]</text><text fill="#000000" font-family="sans-serif" font-size="13" lengthAdjust="spacing" textLength="412" x="127" y="397.1841">Store AuthN Response encrypted in new AuthN Response for RP</text><text fill="#000000" font-family="sans-serif" font-size="13" lengthAdjust="spacing" textLength="171" x="127" y="412.3169">and redirect browser to RP</text><polygon fill="#76B82A" points="516,442.5156,526,446.5156,516,450.5156,520,446.5156" style="stroke:#76B82A;stroke-width:1.0;"/><line style="stroke:#76B82A;stroke-width:1.0;" x1="75" x2="522" y1="446.5156" y2="446.5156"/><text fill="#000000" font-family="sans-serif" font-size="13" font-weight="bold" lengthAdjust="spacing" textLength="30" x="82" y="441.4497">[11]</text><text fill="#000000" font-family="sans-serif" font-size="13" lengthAdjust="spacing" textLength="269" x="116" y="441.4497">Transfer AuthN Response via redirect URL</text><path d="M459,461.5156 L623,461.5156 L623,468.6484 L613,478.6484 L459,478.6484 L459,461.5156 " fill="#EEEEEE" style="stroke:#000000;stroke-width:1.5;"/><rect fill="none" height="250.1953" style="stroke:#000000;stroke-width:1.5;" width="677" x="459" y="461.5156"/><text fill="#000000" font-family="sans-serif" font-size="13" font-weight="bold" lengthAdjust="spacing" textLength="119" x="474" y="474.5825">Server-2-Server</text><polygon fill="#76B82A" points="720,495.7813,730,499.7813,720,503.7813,724,499.7813" style="stroke:#76B82A;stroke-width:1.0;"/><line style="stroke:#76B82A;stroke-width:1.0;" x1="538" x2="726" y1="499.7813" y2="499.7813"/><text fill="#000000" font-family="sans-serif" font-size="13" font-weight="bold" lengthAdjust="spacing" textLength="30" x="545" y="494.7153">[12]</text><text fill="#000000" font-family="sans-serif" font-size="13" lengthAdjust="spacing" textLength="141" x="579" y="494.7153">Request AccessToken</text><polygon fill="#76B82A" points="977,524.9141,987,528.9141,977,532.9141,981,528.9141" style="stroke:#76B82A;stroke-width:1.0;"/><line style="stroke:#76B82A;stroke-width:1.0;" x1="742" x2="983" y1="528.9141" y2="528.9141"/><text fill="#000000" font-family="sans-serif" font-size="13" font-weight="bold" lengthAdjust="spacing" textLength="29" x="749" y="523.8481">[13]</text><text fill="#000000" font-family="sans-serif" font-size="13" lengthAdjust="spacing" textLength="141" x="782" y="523.8481">Request AccessToken</text><polygon fill="#76B82A" points="753,554.0469,743,558.0469,753,562.0469,749,558.0469" style="stroke:#76B82A;stroke-width:1.0;"/><line style="stroke:#76B82A;stroke-width:1.0;" x1="747" x2="993" y1="558.0469" y2="558.0469"/><text fill="#000000" font-family="sans-serif" font-size="13" font-weight="bold" lengthAdjust="spacing" textLength="30" x="759" y="552.981">[14]</text><text fill="#000000" font-family="sans-serif" font-size="13" lengthAdjust="spacing" textLength="131" x="793" y="552.981">Return AccessToken</text><polygon fill="#76B82A" points="549,583.1797,539,587.1797,549,591.1797,545,587.1797" style="stroke:#76B82A;stroke-width:1.0;"/><line style="stroke:#76B82A;stroke-width:1.0;" x1="543" x2="736" y1="587.1797" y2="587.1797"/><text fill="#000000" font-family="sans-serif" font-size="13" font-weight="bold" lengthAdjust="spacing" textLength="30" x="555" y="582.1138">[15]</text><text fill="#000000" font-family="sans-serif" font-size="13" lengthAdjust="spacing" textLength="131" x="589" y="582.1138">Return AccessToken</text><polygon fill="#76B82A" points="720,612.3125,730,616.3125,720,620.3125,724,616.3125" style="stroke:#76B82A;stroke-width:1.0;"/><line style="stroke:#76B82A;stroke-width:1.0;" x1="538" x2="726" y1="616.3125" y2="616.3125"/><text fill="#000000" font-family="sans-serif" font-size="13" font-weight="bold" lengthAdjust="spacing" textLength="30" x="545" y="611.2466">[16]</text><text fill="#000000" font-family="sans-serif" font-size="13" lengthAdjust="spacing" textLength="110" x="579" y="611.2466">Request UserInfo</text><polygon fill="#76B82A" points="977,641.4453,987,645.4453,977,649.4453,981,645.4453" style="stroke:#76B82A;stroke-width:1.0;"/><line style="stroke:#76B82A;stroke-width:1.0;" x1="742" x2="983" y1="645.4453" y2="645.4453"/><text fill="#000000" font-family="sans-serif" font-size="13" font-weight="bold" lengthAdjust="spacing" textLength="30" x="749" y="640.3794">[17]</text><text fill="#000000" font-family="sans-serif" font-size="13" lengthAdjust="spacing" textLength="110" x="783" y="640.3794">Request UserInfo</text><polygon fill="#76B82A" points="753,670.5781,743,674.5781,753,678.5781,749,674.5781" style="stroke:#76B82A;stroke-width:1.0;"/><line style="stroke:#76B82A;stroke-width:1.0;" x1="747" x2="993" y1="674.5781" y2="674.5781"/><text fill="#000000" font-family="sans-serif" font-size="13" font-weight="bold" lengthAdjust="spacing" textLength="30" x="759" y="669.5122">[18]</text><text fill="#000000" font-family="sans-serif" font-size="13" lengthAdjust="spacing" textLength="100" x="793" y="669.5122">Return UserInfo</text><polygon fill="#76B82A" points="549,699.7109,539,703.7109,549,707.7109,545,703.7109" style="stroke:#76B82A;stroke-width:1.0;"/><line style="stroke:#76B82A;stroke-width:1.0;" x1="543" x2="736" y1="703.7109" y2="703.7109"/><text fill="#000000" font-family="sans-serif" font-size="13" font-weight="bold" lengthAdjust="spacing" textLength="30" x="555" y="698.645">[19]</text><text fill="#000000" font-family="sans-serif" font-size="13" lengthAdjust="spacing" textLength="100" x="589" y="698.645">Return UserInfo</text><polygon fill="#76B82A" points="81,735.8438,71,739.8438,81,743.8438,77,739.8438" style="stroke:#76B82A;stroke-width:1.0;"/><line style="stroke:#76B82A;stroke-width:1.0;" x1="75" x2="532" y1="739.8438" y2="739.8438"/><text fill="#000000" font-family="sans-serif" font-size="13" font-weight="bold" lengthAdjust="spacing" textLength="31" x="87" y="734.7778">[20]</text><text fill="#000000" font-family="sans-serif" font-size="13" lengthAdjust="spacing" textLength="201" x="122" y="734.7778">Report Successful Identification</text><!--SRC=[bLHDRnen4BtxLupe9Jr4fJaqLLL50Yea91JGRg8UsXwykmDOWBqPsw2qwd_lUBt0ibaIzO8MpvlttdpOTgrqAKbkmUAJHvqZ_1438hCVcOqXU7VxAVjy8yKWTuQ6XWgahe3CrqioNXTrS3mUnyZOQ5UVzVlzqzczt28CICdDwInLln4-tWenLGkSAerTUiTOMxAEYxaaft9LIkswyflX2nGDICjgAt8mt3fkz43y5K9wPxJVPaZG-vhT_UZtV_M434L3JwERV8D7YzG3QG6zA4zS0Btlc5db4AwI-ViAiRSjnAH0xPHxXY6PDKjSJMRp3vC3N6KjU1GSv3cNxM1EPgUAa3Mh4qmfGalAGBTdMm8zND-nB7o1r34LIF0M8PVyurRI0V7UA48BQJg3gLag7OfJEycssIrdSZwpSFxAx0yEAY0ClUFUzC0PK7h7_c7WtIh19zWhju9gCT4XML5WapIQKXcJFf1QBhc2El6apQKpuA2TOC4cSnUaPlD8ht5_J6lmSsBaDoKdHgCLVaHODLjkx4c66yQuin93Hz0wB23VIBMr87N1lLt3WaUU6ssPf2d850t1KGG4euLq4Xn9RHSyYGkI4sjzxDizLsdBa5ufKgDaNeXEnRg5KQ5DibFoHFAOJ2_rDkLLVk60dn9wBaCJk7s7JZVYeHV9_AS-Svh5fGkEpmspuF6RBqbZAV_VFEzFlUCfqWxf-kOwVeXwMQkc9768uQgWjG-ycxgZ_cfYhqAFmwfPdITzXZmVIwIjAdiTonQwx8QdPA8NvYslBt6THe-mjrns0SD5qeLeFW49beRVaDHNHIty1kBxjL2vTCherZrl_0jJryK_]--></g></svg>