<?xml version="1.0" encoding="UTF-8" standalone="no"?><svg xmlns="http://www.w3.org/2000/svg" xmlns:xlink="http://www.w3.org/1999/xlink" contentStyleType="text/css" height="273px" preserveAspectRatio="none" style="width:678px;height:273px;background:#FFFFFF;" version="1.1" viewBox="0 0 678 273" width="678px" zoomAndPan="magnify"><defs/><g><rect fill="#76B82A" height="29.1328" style="stroke:#76B82A;stroke-width:1.0;" width="10" x="208" y="70.9219"/><rect fill="#76B82A" height="29.1328" style="stroke:#76B82A;stroke-width:1.0;" width="10" x="373" y="129.1875"/><rect fill="#76B82A" height="29.1328" style="stroke:#76B82A;stroke-width:1.0;" width="10" x="570" y="187.4531"/><line style="stroke:#76B82A;stroke-width:0.5;stroke-dasharray:5.0,5.0;" x1="31" x2="31" y1="39.7891" y2="234.5859"/><line style="stroke:#76B82A;stroke-width:0.5;stroke-dasharray:5.0,5.0;" x1="213" x2="213" y1="39.7891" y2="234.5859"/><line style="stroke:#76B82A;stroke-width:0.5;stroke-dasharray:5.0,5.0;" x1="378" x2="378" y1="39.7891" y2="234.5859"/><line style="stroke:#76B82A;stroke-width:0.5;stroke-dasharray:5.0,5.0;" x1="575" x2="575" y1="39.7891" y2="234.5859"/><rect fill="#76B82A" height="33.7891" rx="2.5" ry="2.5" style="stroke:#76B82A;stroke-width:0.5;" width="52" x="5" y="5"/><text fill="#FFFFFF" font-family="Arial" font-size="17" lengthAdjust="spacing" textLength="38" x="12" y="27.7798">CMP</text><rect fill="#76B82A" height="33.7891" rx="2.5" ry="2.5" style="stroke:#76B82A;stroke-width:0.5;" width="52" x="5" y="233.5859"/><text fill="#FFFFFF" font-family="Arial" font-size="17" lengthAdjust="spacing" textLength="38" x="12" y="256.3657">CMP</text><rect fill="#76B82A" height="33.7891" rx="2.5" ry="2.5" style="stroke:#76B82A;stroke-width:0.5;" width="130" x="148" y="5"/><text fill="#FFFFFF" font-family="Arial" font-size="17" lengthAdjust="spacing" textLength="116" x="155" y="27.7798">Read Service</text><rect fill="#76B82A" height="33.7891" rx="2.5" ry="2.5" style="stroke:#76B82A;stroke-width:0.5;" width="130" x="148" y="233.5859"/><text fill="#FFFFFF" font-family="Arial" font-size="17" lengthAdjust="spacing" textLength="116" x="155" y="256.3657">Read Service</text><rect fill="#76B82A" height="33.7891" rx="2.5" ry="2.5" style="stroke:#76B82A;stroke-width:0.5;" width="180" x="288" y="5"/><text fill="#FFFFFF" font-family="Arial" font-size="17" lengthAdjust="spacing" textLength="166" x="295" y="27.7798">IdentWrite Service</text><rect fill="#76B82A" height="33.7891" rx="2.5" ry="2.5" style="stroke:#76B82A;stroke-width:0.5;" width="180" x="288" y="233.5859"/><text fill="#FFFFFF" font-family="Arial" font-size="17" lengthAdjust="spacing" textLength="166" x="295" y="256.3657">IdentWrite Service</text><rect fill="#76B82A" height="33.7891" rx="2.5" ry="2.5" style="stroke:#76B82A;stroke-width:0.5;" width="194" x="478" y="5"/><text fill="#FFFFFF" font-family="Arial" font-size="17" lengthAdjust="spacing" textLength="180" x="485" y="27.7798">Data Export Service</text><rect fill="#76B82A" height="33.7891" rx="2.5" ry="2.5" style="stroke:#76B82A;stroke-width:0.5;" width="194" x="478" y="233.5859"/><text fill="#FFFFFF" font-family="Arial" font-size="17" lengthAdjust="spacing" textLength="180" x="485" y="256.3657">Data Export Service</text><rect fill="#76B82A" height="29.1328" style="stroke:#76B82A;stroke-width:1.0;" width="10" x="208" y="70.9219"/><rect fill="#76B82A" height="29.1328" style="stroke:#76B82A;stroke-width:1.0;" width="10" x="373" y="129.1875"/><rect fill="#76B82A" height="29.1328" style="stroke:#76B82A;stroke-width:1.0;" width="10" x="570" y="187.4531"/><polygon fill="#76B82A" points="196,66.9219,206,70.9219,196,74.9219,200,70.9219" style="stroke:#76B82A;stroke-width:1.0;"/><line style="stroke:#76B82A;stroke-width:1.0;" x1="31" x2="202" y1="70.9219" y2="70.9219"/><text fill="#000000" font-family="sans-serif" font-size="13" lengthAdjust="spacing" textLength="158" x="38" y="65.856">GET foo @Andrea/Achim</text><polygon fill="#76B82A" points="42,96.0547,32,100.0547,42,104.0547,38,100.0547" style="stroke:#76B82A;stroke-width:1.0;"/><line style="stroke:#76B82A;stroke-width:1.0;" x1="36" x2="212" y1="100.0547" y2="100.0547"/><text fill="#000000" font-family="sans-serif" font-size="13" lengthAdjust="spacing" textLength="59" x="48" y="94.9888">response</text><polygon fill="#76B82A" points="361,125.1875,371,129.1875,361,133.1875,365,129.1875" style="stroke:#76B82A;stroke-width:1.0;"/><line style="stroke:#76B82A;stroke-width:1.0;" x1="31" x2="367" y1="129.1875" y2="129.1875"/><text fill="#000000" font-family="sans-serif" font-size="13" lengthAdjust="spacing" textLength="166" x="38" y="124.1216">POST foo @Andrea/Achim</text><polygon fill="#76B82A" points="42,154.3203,32,158.3203,42,162.3203,38,158.3203" style="stroke:#76B82A;stroke-width:1.0;"/><line style="stroke:#76B82A;stroke-width:1.0;" x1="36" x2="377" y1="158.3203" y2="158.3203"/><text fill="#000000" font-family="sans-serif" font-size="13" lengthAdjust="spacing" textLength="59" x="48" y="153.2544">response</text><polygon fill="#76B82A" points="558,183.4531,568,187.4531,558,191.4531,562,187.4531" style="stroke:#76B82A;stroke-width:1.0;"/><line style="stroke:#76B82A;stroke-width:1.0;" x1="31" x2="564" y1="187.4531" y2="187.4531"/><text fill="#000000" font-family="sans-serif" font-size="13" lengthAdjust="spacing" textLength="158" x="38" y="182.3872">GET foo @Andrea/Achim</text><polygon fill="#76B82A" points="42,212.5859,32,216.5859,42,220.5859,38,216.5859" style="stroke:#76B82A;stroke-width:1.0;"/><line style="stroke:#76B82A;stroke-width:1.0;" x1="36" x2="574" y1="216.5859" y2="216.5859"/><text fill="#000000" font-family="sans-serif" font-size="13" lengthAdjust="spacing" textLength="59" x="48" y="211.52">response</text><!--MD5=[ab2c9aaf8be53b71b4cea6335c6060e6]
@startuml
skinparam sequence {
ArrowColor #76b82a
ActorBorderColor #76b82a
ActorBackgroundColor #FFF
ActorFontColor #000
ActorFontName Arial
ActorFontSize 17

LifeLineBorderColor #76b82a
LifeLineBackgroundColor #76b82a

ParticipantBorderColor #76b82a
ParticipantBackgroundColor #76b82a
ParticipantFontName Arial
ParticipantFontSize 17
ParticipantFontColor #FFF

}

participant  "CMP" as cmp
participant  "Read Service" as rs
participant  "IdentWrite Service" as ws
participant  "Data Export Service" as des

cmp -> rs : GET foo @Andrea/Achim
activate rs
rs -> cmp : response
deactivate rs
cmp -> ws : POST foo @Andrea/Achim
activate ws
ws -> cmp : response
deactivate ws
cmp -> des : GET foo @Andrea/Achim
activate des
des -> cmp : response
deactivate des
@enduml

PlantUML version 1.2022.4beta2(Unknown compile time)
(GPL source distribution)
Java Runtime: Java(TM) SE Runtime Environment
JVM: Java HotSpot(TM) 64-Bit Server VM
Default Encoding: UTF-8
Language: en
Country: US
--></g></svg>