<?xml version="1.0" encoding="UTF-8" standalone="no"?><svg xmlns="http://www.w3.org/2000/svg" xmlns:xlink="http://www.w3.org/1999/xlink" contentScriptType="application/ecmascript" contentStyleType="text/css" height="859px" preserveAspectRatio="none" style="width:1166px;height:859px;" version="1.1" viewBox="0 0 1166 859" width="1166px" zoomAndPan="magnify"><defs><filter height="300%" id="f1v8lyyl153yew" width="300%" x="-1" y="-1"><feGaussianBlur result="blurOut" stdDeviation="2.0"/><feColorMatrix in="blurOut" result="blurOut2" type="matrix" values="0 0 0 0 0 0 0 0 0 0 0 0 0 0 0 0 0 0 .4 0"/><feOffset dx="4.0" dy="4.0" in="blurOut2" result="blurOut3"/><feBlend in="SourceGraphic" in2="blurOut3" mode="normal"/></filter></defs><g><rect fill="#76B82A" filter="url(#f1v8lyyl153yew)" height="322.4609" style="stroke:#76B82A;stroke-width:1.0;" width="10" x="65" y="424.3828"/><rect fill="#76B82A" filter="url(#f1v8lyyl153yew)" height="29.1328" style="stroke:#76B82A;stroke-width:1.0;" width="10" x="528" y="147.0547"/><rect fill="#76B82A" filter="url(#f1v8lyyl153yew)" height="293.3281" style="stroke:#76B82A;stroke-width:1.0;" width="10" x="528" y="453.5156"/><rect fill="#76B82A" filter="url(#f1v8lyyl153yew)" height="29.1328" style="stroke:#76B82A;stroke-width:1.0;" width="10" x="732" y="205.3203"/><rect fill="#76B82A" filter="url(#f1v8lyyl153yew)" height="44.2656" style="stroke:#76B82A;stroke-width:1.0;" width="10" x="732" y="380.1172"/><rect fill="#76B82A" filter="url(#f1v8lyyl153yew)" height="87.3984" style="stroke:#76B82A;stroke-width:1.0;" width="10" x="732" y="506.7813"/><rect fill="#76B82A" filter="url(#f1v8lyyl153yew)" height="87.3984" style="stroke:#76B82A;stroke-width:1.0;" width="10" x="732" y="623.3125"/><rect fill="#76B82A" filter="url(#f1v8lyyl153yew)" height="29.1328" style="stroke:#76B82A;stroke-width:1.0;" width="10" x="993" y="263.5859"/><rect fill="#76B82A" filter="url(#f1v8lyyl153yew)" height="29.1328" style="stroke:#76B82A;stroke-width:1.0;" width="10" x="993" y="321.8516"/><rect fill="#76B82A" filter="url(#f1v8lyyl153yew)" height="29.1328" style="stroke:#76B82A;stroke-width:1.0;" width="10" x="993" y="535.9141"/><rect fill="#76B82A" filter="url(#f1v8lyyl153yew)" height="29.1328" style="stroke:#76B82A;stroke-width:1.0;" width="10" x="993" y="652.4453"/><rect fill="#FFFFFF" filter="url(#f1v8lyyl153yew)" height="646.0547" style="stroke:#000000;stroke-width:2.0;" width="1142" x="10" y="108.7891"/><rect fill="#FFFFFF" filter="url(#f1v8lyyl153yew)" height="250.1953" style="stroke:#000000;stroke-width:2.0;" width="685" x="457" y="468.5156"/><line style="stroke:#76B82A;stroke-width:1.0;stroke-dasharray:5.0,5.0;" x1="70" x2="70" y1="91.7891" y2="771.8438"/><line style="stroke:#76B82A;stroke-width:1.0;stroke-dasharray:5.0,5.0;" x1="533" x2="533" y1="91.7891" y2="771.8438"/><line style="stroke:#76B82A;stroke-width:1.0;stroke-dasharray:5.0,5.0;" x1="737" x2="737" y1="91.7891" y2="771.8438"/><line style="stroke:#76B82A;stroke-width:1.0;stroke-dasharray:5.0,5.0;" x1="998" x2="998" y1="91.7891" y2="771.8438"/><text fill="#000000" font-family="Arial" font-size="17" lengthAdjust="spacing" textLength="94" x="20" y="87.7798">netID User</text><ellipse cx="70" cy="15" fill="#FFFFFF" filter="url(#f1v8lyyl153yew)" rx="8" ry="8" style="stroke:#76B82A;stroke-width:2.0;"/><path d="M70,23 L70,50 M57,31 L83,31 M70,50 L57,65 M70,50 L83,65 " fill="none" filter="url(#f1v8lyyl153yew)" style="stroke:#76B82A;stroke-width:2.0;"/><text fill="#000000" font-family="Arial" font-size="17" lengthAdjust="spacing" textLength="94" x="20" y="786.6235">netID User</text><ellipse cx="70" cy="800.6328" fill="#FFFFFF" filter="url(#f1v8lyyl153yew)" rx="8" ry="8" style="stroke:#76B82A;stroke-width:2.0;"/><path d="M70,808.6328 L70,835.6328 M57,816.6328 L83,816.6328 M70,835.6328 L57,850.6328 M70,835.6328 L83,850.6328 " fill="none" filter="url(#f1v8lyyl153yew)" style="stroke:#76B82A;stroke-width:2.0;"/><rect fill="#76B82A" filter="url(#f1v8lyyl153yew)" height="33.7891" style="stroke:#76B82A;stroke-width:1.5;" width="128" x="467" y="53"/><text fill="#FFFFFF" font-family="Arial" font-size="17" lengthAdjust="spacing" textLength="114" x="474" y="75.7798">Website (RP)</text><rect fill="#76B82A" filter="url(#f1v8lyyl153yew)" height="33.7891" style="stroke:#76B82A;stroke-width:1.5;" width="128" x="467" y="770.8438"/><text fill="#FFFFFF" font-family="Arial" font-size="17" lengthAdjust="spacing" textLength="114" x="474" y="793.6235">Website (RP)</text><rect fill="#76B82A" filter="url(#f1v8lyyl153yew)" height="33.7891" style="stroke:#76B82A;stroke-width:1.5;" width="230" x="620" y="53"/><text fill="#FFFFFF" font-family="Arial" font-size="17" lengthAdjust="spacing" textLength="216" x="627" y="75.7798">Identity Broker (IOP/IRP)</text><rect fill="#76B82A" filter="url(#f1v8lyyl153yew)" height="33.7891" style="stroke:#76B82A;stroke-width:1.5;" width="230" x="620" y="770.8438"/><text fill="#FFFFFF" font-family="Arial" font-size="17" lengthAdjust="spacing" textLength="216" x="627" y="793.6235">Identity Broker (IOP/IRP)</text><rect fill="#76B82A" filter="url(#f1v8lyyl153yew)" height="33.7891" style="stroke:#76B82A;stroke-width:1.5;" width="264" x="864" y="53"/><text fill="#FFFFFF" font-family="Arial" font-size="17" lengthAdjust="spacing" textLength="250" x="871" y="75.7798">netID Account Provider (OP)</text><rect fill="#76B82A" filter="url(#f1v8lyyl153yew)" height="33.7891" style="stroke:#76B82A;stroke-width:1.5;" width="264" x="864" y="770.8438"/><text fill="#FFFFFF" font-family="Arial" font-size="17" lengthAdjust="spacing" textLength="250" x="871" y="793.6235">netID Account Provider (OP)</text><rect fill="#76B82A" filter="url(#f1v8lyyl153yew)" height="322.4609" style="stroke:#76B82A;stroke-width:1.0;" width="10" x="65" y="424.3828"/><rect fill="#76B82A" filter="url(#f1v8lyyl153yew)" height="29.1328" style="stroke:#76B82A;stroke-width:1.0;" width="10" x="528" y="147.0547"/><rect fill="#76B82A" filter="url(#f1v8lyyl153yew)" height="293.3281" style="stroke:#76B82A;stroke-width:1.0;" width="10" x="528" y="453.5156"/><rect fill="#76B82A" filter="url(#f1v8lyyl153yew)" height="29.1328" style="stroke:#76B82A;stroke-width:1.0;" width="10" x="732" y="205.3203"/><rect fill="#76B82A" filter="url(#f1v8lyyl153yew)" height="44.2656" style="stroke:#76B82A;stroke-width:1.0;" width="10" x="732" y="380.1172"/><rect fill="#76B82A" filter="url(#f1v8lyyl153yew)" height="87.3984" style="stroke:#76B82A;stroke-width:1.0;" width="10" x="732" y="506.7813"/><rect fill="#76B82A" filter="url(#f1v8lyyl153yew)" height="87.3984" style="stroke:#76B82A;stroke-width:1.0;" width="10" x="732" y="623.3125"/><rect fill="#76B82A" filter="url(#f1v8lyyl153yew)" height="29.1328" style="stroke:#76B82A;stroke-width:1.0;" width="10" x="993" y="263.5859"/><rect fill="#76B82A" filter="url(#f1v8lyyl153yew)" height="29.1328" style="stroke:#76B82A;stroke-width:1.0;" width="10" x="993" y="321.8516"/><rect fill="#76B82A" filter="url(#f1v8lyyl153yew)" height="29.1328" style="stroke:#76B82A;stroke-width:1.0;" width="10" x="993" y="535.9141"/><rect fill="#76B82A" filter="url(#f1v8lyyl153yew)" height="29.1328" style="stroke:#76B82A;stroke-width:1.0;" width="10" x="993" y="652.4453"/><path d="M10,108.7891 L118,108.7891 L118,115.7891 L108,125.7891 L10,125.7891 L10,108.7891 " fill="#EEEEEE" style="stroke:#000000;stroke-width:1.0;"/><rect fill="none" height="646.0547" style="stroke:#000000;stroke-width:2.0;" width="1142" x="10" y="108.7891"/><text fill="#000000" font-family="sans-serif" font-size="13" font-weight="bold" lengthAdjust="spacing" textLength="63" x="25" y="121.856">Browser</text><polygon fill="#76B82A" points="516,143.0547,526,147.0547,516,151.0547,520,147.0547" style="stroke:#76B82A;stroke-width:1.0;"/><line style="stroke:#76B82A;stroke-width:1.0;" x1="70" x2="522" y1="147.0547" y2="147.0547"/><text fill="#000000" font-family="sans-serif" font-size="13" font-weight="bold" lengthAdjust="spacing" textLength="31" x="77" y="141.9888">[01]</text><text fill="#000000" font-family="sans-serif" font-size="13" lengthAdjust="spacing" textLength="258" x="112" y="141.9888">Start a use case that requires SSO Login</text><polygon fill="#76B82A" points="81,172.1875,71,176.1875,81,180.1875,77,176.1875" style="stroke:#76B82A;stroke-width:1.0;"/><line style="stroke:#76B82A;stroke-width:1.0;" x1="75" x2="532" y1="176.1875" y2="176.1875"/><text fill="#000000" font-family="sans-serif" font-size="13" font-weight="bold" lengthAdjust="spacing" textLength="31" x="87" y="171.1216">[02]</text><text fill="#000000" font-family="sans-serif" font-size="13" lengthAdjust="spacing" textLength="399" x="122" y="171.1216">Show "netID Login Button" to invoke AuthReq with parameters</text><polygon fill="#76B82A" points="720,201.3203,730,205.3203,720,209.3203,724,205.3203" style="stroke:#76B82A;stroke-width:1.0;"/><line style="stroke:#76B82A;stroke-width:1.0;" x1="70" x2="726" y1="205.3203" y2="205.3203"/><text fill="#000000" font-family="sans-serif" font-size="13" font-weight="bold" lengthAdjust="spacing" textLength="30" x="77" y="200.2544">[03]</text><text fill="#000000" font-family="sans-serif" font-size="13" lengthAdjust="spacing" textLength="104" x="111" y="200.2544">Trigger AuthReq</text><polygon fill="#76B82A" points="81,230.4531,71,234.4531,81,238.4531,77,234.4531" style="stroke:#76B82A;stroke-width:1.0;"/><line style="stroke:#76B82A;stroke-width:1.0;" x1="75" x2="736" y1="234.4531" y2="234.4531"/><text fill="#000000" font-family="sans-serif" font-size="13" font-weight="bold" lengthAdjust="spacing" textLength="31" x="87" y="229.3872">[04]</text><text fill="#000000" font-family="sans-serif" font-size="13" lengthAdjust="spacing" textLength="213" x="122" y="229.3872">Redirect to OP with new AuthReq</text><polygon fill="#76B82A" points="981,259.5859,991,263.5859,981,267.5859,985,263.5859" style="stroke:#76B82A;stroke-width:1.0;"/><line style="stroke:#76B82A;stroke-width:1.0;" x1="70" x2="987" y1="263.5859" y2="263.5859"/><text fill="#000000" font-family="sans-serif" font-size="13" font-weight="bold" lengthAdjust="spacing" textLength="31" x="77" y="258.52">[05]</text><text fill="#000000" font-family="sans-serif" font-size="13" lengthAdjust="spacing" textLength="141" x="112" y="258.52">Login with Credentials</text><polygon fill="#76B82A" points="81,288.7188,71,292.7188,81,296.7188,77,292.7188" style="stroke:#76B82A;stroke-width:1.0;"/><line style="stroke:#76B82A;stroke-width:1.0;" x1="75" x2="997" y1="292.7188" y2="292.7188"/><text fill="#000000" font-family="sans-serif" font-size="13" font-weight="bold" lengthAdjust="spacing" textLength="31" x="87" y="287.6528">[06]</text><text fill="#000000" font-family="sans-serif" font-size="13" lengthAdjust="spacing" textLength="280" x="122" y="287.6528">Show requested claims and ask for consent</text><polygon fill="#76B82A" points="981,317.8516,991,321.8516,981,325.8516,985,321.8516" style="stroke:#76B82A;stroke-width:1.0;"/><line style="stroke:#76B82A;stroke-width:1.0;" x1="70" x2="987" y1="321.8516" y2="321.8516"/><text fill="#000000" font-family="sans-serif" font-size="13" font-weight="bold" lengthAdjust="spacing" textLength="31" x="77" y="316.7856">[07]</text><text fill="#000000" font-family="sans-serif" font-size="13" lengthAdjust="spacing" textLength="158" x="112" y="316.7856">Consent to data transfer</text><polygon fill="#76B82A" points="81,346.9844,71,350.9844,81,354.9844,77,350.9844" style="stroke:#76B82A;stroke-width:1.0;"/><line style="stroke:#76B82A;stroke-width:1.0;" x1="75" x2="997" y1="350.9844" y2="350.9844"/><text fill="#000000" font-family="sans-serif" font-size="13" font-weight="bold" lengthAdjust="spacing" textLength="31" x="87" y="345.9185">[08]</text><text fill="#000000" font-family="sans-serif" font-size="13" lengthAdjust="spacing" textLength="265" x="122" y="345.9185">Issue AuthN Response and redirect to IRP</text><polygon fill="#76B82A" points="720,376.1172,730,380.1172,720,384.1172,724,380.1172" style="stroke:#76B82A;stroke-width:1.0;"/><line style="stroke:#76B82A;stroke-width:1.0;" x1="70" x2="726" y1="380.1172" y2="380.1172"/><text fill="#000000" font-family="sans-serif" font-size="13" font-weight="bold" lengthAdjust="spacing" textLength="31" x="77" y="375.0513">[09]</text><text fill="#000000" font-family="sans-serif" font-size="13" lengthAdjust="spacing" textLength="269" x="112" y="375.0513">Transfer AuthN Response via redirect URL</text><polygon fill="#76B82A" points="86,420.3828,76,424.3828,86,428.3828,82,424.3828" style="stroke:#76B82A;stroke-width:1.0;"/><line style="stroke:#76B82A;stroke-width:1.0;" x1="80" x2="736" y1="424.3828" y2="424.3828"/><text fill="#000000" font-family="sans-serif" font-size="13" font-weight="bold" lengthAdjust="spacing" textLength="31" x="92" y="411.7505">[10]</text><text fill="#000000" font-family="sans-serif" font-size="13" lengthAdjust="spacing" textLength="412" x="127" y="404.1841">Store AuthN Response encrypted in new AuthN Response for RP</text><text fill="#000000" font-family="sans-serif" font-size="13" lengthAdjust="spacing" textLength="171" x="127" y="419.3169">and redirect browser to RP</text><polygon fill="#76B82A" points="516,449.5156,526,453.5156,516,457.5156,520,453.5156" style="stroke:#76B82A;stroke-width:1.0;"/><line style="stroke:#76B82A;stroke-width:1.0;" x1="75" x2="522" y1="453.5156" y2="453.5156"/><text fill="#000000" font-family="sans-serif" font-size="13" font-weight="bold" lengthAdjust="spacing" textLength="30" x="82" y="448.4497">[11]</text><text fill="#000000" font-family="sans-serif" font-size="13" lengthAdjust="spacing" textLength="269" x="116" y="448.4497">Transfer AuthN Response via redirect URL</text><path d="M457,468.5156 L621,468.5156 L621,475.5156 L611,485.5156 L457,485.5156 L457,468.5156 " fill="#EEEEEE" style="stroke:#000000;stroke-width:1.0;"/><rect fill="none" height="250.1953" style="stroke:#000000;stroke-width:2.0;" width="685" x="457" y="468.5156"/><text fill="#000000" font-family="sans-serif" font-size="13" font-weight="bold" lengthAdjust="spacing" textLength="119" x="472" y="481.5825">Server-2-Server</text><polygon fill="#76B82A" points="720,502.7813,730,506.7813,720,510.7813,724,506.7813" style="stroke:#76B82A;stroke-width:1.0;"/><line style="stroke:#76B82A;stroke-width:1.0;" x1="538" x2="726" y1="506.7813" y2="506.7813"/><text fill="#000000" font-family="sans-serif" font-size="13" font-weight="bold" lengthAdjust="spacing" textLength="30" x="545" y="501.7153">[12]</text><text fill="#000000" font-family="sans-serif" font-size="13" lengthAdjust="spacing" textLength="141" x="579" y="501.7153">Request AccessToken</text><polygon fill="#76B82A" points="981,531.9141,991,535.9141,981,539.9141,985,535.9141" style="stroke:#76B82A;stroke-width:1.0;"/><line style="stroke:#76B82A;stroke-width:1.0;" x1="742" x2="987" y1="535.9141" y2="535.9141"/><text fill="#000000" font-family="sans-serif" font-size="13" font-weight="bold" lengthAdjust="spacing" textLength="29" x="749" y="530.8481">[13]</text><text fill="#000000" font-family="sans-serif" font-size="13" lengthAdjust="spacing" textLength="141" x="782" y="530.8481">Request AccessToken</text><polygon fill="#76B82A" points="753,561.0469,743,565.0469,753,569.0469,749,565.0469" style="stroke:#76B82A;stroke-width:1.0;"/><line style="stroke:#76B82A;stroke-width:1.0;" x1="747" x2="997" y1="565.0469" y2="565.0469"/><text fill="#000000" font-family="sans-serif" font-size="13" font-weight="bold" lengthAdjust="spacing" textLength="30" x="759" y="559.981">[14]</text><text fill="#000000" font-family="sans-serif" font-size="13" lengthAdjust="spacing" textLength="131" x="793" y="559.981">Return AccessToken</text><polygon fill="#76B82A" points="549,590.1797,539,594.1797,549,598.1797,545,594.1797" style="stroke:#76B82A;stroke-width:1.0;"/><line style="stroke:#76B82A;stroke-width:1.0;" x1="543" x2="736" y1="594.1797" y2="594.1797"/><text fill="#000000" font-family="sans-serif" font-size="13" font-weight="bold" lengthAdjust="spacing" textLength="30" x="555" y="589.1138">[15]</text><text fill="#000000" font-family="sans-serif" font-size="13" lengthAdjust="spacing" textLength="131" x="589" y="589.1138">Return AccessToken</text><polygon fill="#76B82A" points="720,619.3125,730,623.3125,720,627.3125,724,623.3125" style="stroke:#76B82A;stroke-width:1.0;"/><line style="stroke:#76B82A;stroke-width:1.0;" x1="538" x2="726" y1="623.3125" y2="623.3125"/><text fill="#000000" font-family="sans-serif" font-size="13" font-weight="bold" lengthAdjust="spacing" textLength="30" x="545" y="618.2466">[16]</text><text fill="#000000" font-family="sans-serif" font-size="13" lengthAdjust="spacing" textLength="110" x="579" y="618.2466">Request UserInfo</text><polygon fill="#76B82A" points="981,648.4453,991,652.4453,981,656.4453,985,652.4453" style="stroke:#76B82A;stroke-width:1.0;"/><line style="stroke:#76B82A;stroke-width:1.0;" x1="742" x2="987" y1="652.4453" y2="652.4453"/><text fill="#000000" font-family="sans-serif" font-size="13" font-weight="bold" lengthAdjust="spacing" textLength="30" x="749" y="647.3794">[17]</text><text fill="#000000" font-family="sans-serif" font-size="13" lengthAdjust="spacing" textLength="110" x="783" y="647.3794">Request UserInfo</text><polygon fill="#76B82A" points="753,677.5781,743,681.5781,753,685.5781,749,681.5781" style="stroke:#76B82A;stroke-width:1.0;"/><line style="stroke:#76B82A;stroke-width:1.0;" x1="747" x2="997" y1="681.5781" y2="681.5781"/><text fill="#000000" font-family="sans-serif" font-size="13" font-weight="bold" lengthAdjust="spacing" textLength="30" x="759" y="676.5122">[18]</text><text fill="#000000" font-family="sans-serif" font-size="13" lengthAdjust="spacing" textLength="100" x="793" y="676.5122">Return UserInfo</text><polygon fill="#76B82A" points="549,706.7109,539,710.7109,549,714.7109,545,710.7109" style="stroke:#76B82A;stroke-width:1.0;"/><line style="stroke:#76B82A;stroke-width:1.0;" x1="543" x2="736" y1="710.7109" y2="710.7109"/><text fill="#000000" font-family="sans-serif" font-size="13" font-weight="bold" lengthAdjust="spacing" textLength="30" x="555" y="705.645">[19]</text><text fill="#000000" font-family="sans-serif" font-size="13" lengthAdjust="spacing" textLength="100" x="589" y="705.645">Return UserInfo</text><polygon fill="#76B82A" points="81,742.8438,71,746.8438,81,750.8438,77,746.8438" style="stroke:#76B82A;stroke-width:1.0;"/><line style="stroke:#76B82A;stroke-width:1.0;" x1="75" x2="532" y1="746.8438" y2="746.8438"/><text fill="#000000" font-family="sans-serif" font-size="13" font-weight="bold" lengthAdjust="spacing" textLength="31" x="87" y="741.7778">[20]</text><text fill="#000000" font-family="sans-serif" font-size="13" lengthAdjust="spacing" textLength="201" x="122" y="741.7778">Report Successful Identification</text><!--MD5=[e46b70117c49ef22488b19637cc7b623]
@startuml
skinparam sequence {
	ArrowColor #76b82a
	ActorBorderColor #76b82a
    ActorBackgroundColor #FFF
	ActorFontColor #000
    ActorFontName Arial
	ActorFontSize 17

	LifeLineBorderColor #76b82a
	LifeLineBackgroundColor #76b82a
	
	ParticipantBorderColor #76b82a
	ParticipantBackgroundColor #76b82a
	ParticipantFontName Arial
	ParticipantFontSize 17
	ParticipantFontColor #FFF

}

autonumber "<b>[00]"
actor "netID User" as eu
participant  "Website (RP)" as ws
participant  "Identity Broker (IOP/IRP)" as ib
participant  "netID Account Provider (OP)" as op
group Browser
    eu -> ws : Start a use case that requires SSO Login 
    activate ws
    ws -> eu : Show "netID Login Button" to invoke AuthReq with parameters
    deactivate ws
    eu -> ib : Trigger AuthReq
    activate ib
    ib -> eu : Redirect to OP with new AuthReq
    deactivate ib
    eu -> op : Login with Credentials
    activate op
    op -> eu : Show requested claims and ask for consent
    deactivate op
    eu -> op : Consent to data transfer
    activate op
    op -> eu : Issue AuthN Response and redirect to IRP
    deactivate op
    eu -> ib : Transfer AuthN Response via redirect URL
    activate ib
    ib -> eu : Store AuthN Response encrypted in new AuthN Response for RP\nand redirect browser to RP
    deactivate ib
    activate eu
    eu -> ws : Transfer AuthN Response via redirect URL
    activate ws

    group Server-2-Server

        ws -> ib : Request AccessToken
        activate ib
        ib -> op : Request AccessToken
        activate op
        op -> ib : Return AccessToken
        deactivate op
        ib -> ws : Return AccessToken
        deactivate ib

        ws -> ib : Request UserInfo
        activate ib
        ib -> op : Request UserInfo
        activate op
        op -> ib : Return UserInfo
        deactivate op
        ib -> ws : Return UserInfo
        deactivate ib
    end

    ws -> eu : Report Successful Identification
    deactivate ws
    deactivate eu
end
@enduml

PlantUML version 1.2021.2beta9(Unknown compile time)
(GPL source distribution)
Java Runtime: Java(TM) SE Runtime Environment
JVM: Java HotSpot(TM) 64-Bit Server VM
Default Encoding: UTF-8
Language: en
Country: US
--></g></svg>